PathFileType	4	(X/Y/Z)	D:\TRACE\spotREDO_2-26-24\spot_justBody_Motion_1_2-platform.trc
DataRate	CameraRate	NumFrames	NumMarkers	Units	OrigDataRate	OrigDataStartFrame	OrigNumFrames
100.00	100.00	      55	5	mm	100.00	876	      7000
Frame#	Time	Left_Front			Right_Front			Left_Aft			Right_Aft			Post			
		X1	Y1	Z1	X2	Y2	Z2	X3	Y3	Z3	X4	Y4	Z4	X5	Y5	Z5	

876	8.750	-662.45441	-4.28538	-575.67120	752.39734	4.98039	-491.13089	-733.60022	5.29280	643.37280	836.58099	13.04393	646.46350	46.60937	622.87305	-982.83856	
877	8.760	-661.69086	-4.68291	-575.83990	752.92786	4.79324	-491.32144	-732.87311	5.73023	643.26288	837.35815	13.29942	646.45178	47.49814	622.38672	-983.32123	
878	8.770	-660.86993	-5.04326	-575.84491	754.02600	4.38400	-491.41385	-732.09131	5.96974	643.09839	838.26129	13.71877	646.31262	48.40422	621.71417	-983.63885	
879	8.780	-660.16815	-5.25822	-575.95349	754.86951	4.08612	-491.37964	-731.26117	6.29917	643.09882	838.65100	13.92200	646.30615	49.04636	621.10071	-984.07440	
880	8.790	-659.25195	-5.45791	-575.98743	755.35815	3.90663	-491.49603	-730.65936	6.73563	642.99622	839.72119	14.11118	646.10687	49.68942	620.63538	-984.41266	
881	8.800	-658.71393	-5.69504	-576.07703	755.90405	3.65088	-491.47144	-729.93091	7.06244	642.90558	840.36621	14.57183	646.09113	50.47983	620.09308	-984.88068	
882	8.810	-658.02271	-6.16928	-576.16125	757.14307	3.20569	-491.50708	-729.29419	7.36250	642.88678	841.26990	14.55615	645.76648	51.37056	619.41669	-985.30670	
883	8.820	-657.03204	-6.54541	-576.35809	757.70056	3.04813	-491.55307	-728.46381	7.65175	642.78619	841.79156	15.38565	645.96014	51.80000	618.95905	-985.52966	
884	8.830	-656.49524	-6.69548	-576.41815	758.18744	2.77790	-491.68573	-727.57947	8.28782	642.74579	842.67560	15.80064	645.86096	52.61668	618.31305	-985.89038	
885	8.840	-655.74957	-7.08581	-576.48724	758.95746	2.37835	-491.78064	-727.07007	8.30978	642.67853	843.33008	16.03214	645.77850	53.53772	617.85254	-986.30151	
886	8.850	-655.24579	-7.45446	-576.64380	759.62750	2.07040	-491.86731	-726.37848	8.43753	642.54602	843.57990	16.13467	645.70575	54.29497	617.43066	-986.74792	
887	8.860	-654.70551	-7.74720	-576.56915	760.14063	1.97900	-492.00122	-725.82050	8.70587	642.48407	844.67157	16.80949	645.64471	54.71843	617.08539	-987.27386	
888	8.870	-653.85913	-8.06203	-576.64777	760.70233	1.65962	-492.08124	-725.08374	8.87450	642.36768	845.04431	16.83346	645.48035	55.28791	616.38330	-987.68719	
889	8.880	-653.34253	-8.32505	-576.72675	761.52026	1.27662	-492.09912	-724.50800	9.58947	642.16595	845.62531	17.30433	645.38342	55.72885	615.73682	-988.30975	
890	8.890	-652.77704	-8.61151	-576.74615	761.92749	1.15816	-492.17462	-723.84979	10.05431	642.14868	846.26166	17.54437	645.14563	56.46976	615.22601	-988.71283	
891	8.900	-652.33710	-8.75421	-576.69537	762.40570	0.80957	-492.22809	-723.62195	10.18838	642.14856	846.76007	17.55736	645.02667	57.22992	614.87323	-988.98584	
892	8.910	-651.81683	-9.26378	-576.83777	762.93842	0.58375	-492.44437	-723.01587	10.48361	642.03906	847.37915	18.33319	645.21259	57.81532	614.26678	-989.19196	
893	8.920	-651.12469	-9.78878	-577.10345	763.46570	0.18903	-492.39639	-722.44604	10.75930	641.96228	847.90631	18.56199	645.13055	57.70293	613.67334	-989.74670	
894	8.930	-650.45734	-10.11108	-577.17950	764.18243	-0.03504	-492.70352	-721.90338	11.21172	641.86206	848.35156	19.15274	645.15149	58.45465	613.28723	-990.16455	
895	8.940	-650.14197	-10.36532	-577.06067	764.65936	-0.34074	-492.61932	-721.51178	11.54920	641.82098	848.89838	19.57812	644.94049	59.14038	612.81708	-990.39514	
896	8.950	-649.83356	-10.51348	-577.18890	765.05371	-0.57112	-492.77988	-721.02832	11.82805	641.81934	849.31860	19.80077	644.83069	59.51217	612.27106	-990.86188	
897	8.960	-649.24066	-10.86725	-577.28802	765.38751	-0.82231	-492.72141	-720.66583	12.25977	641.65826	849.88495	20.14348	644.68939	59.70776	611.53101	-991.28912	
898	8.970	-648.83228	-11.20751	-577.28351	765.60083	-1.07076	-492.90829	-720.34302	12.56833	641.51617	850.11627	20.26619	644.59113	60.04671	611.09729	-991.83850	
899	8.980	-648.52594	-11.59317	-577.30994	766.02893	-1.37793	-493.07291	-719.95007	12.66276	641.40875	850.53436	20.60900	644.44513	60.93139	610.39319	-992.06696	
900	8.990	-648.20386	-11.85469	-577.50391	766.57910	-1.69123	-493.17615	-719.56689	13.10414	641.29315	850.63422	20.91099	644.43152	60.71264	609.83160	-992.75122	
901	9.000	-647.92438	-12.09118	-577.58899	766.84973	-1.89040	-493.22910	-719.33789	13.83190	641.06091	851.03467	21.25495	644.32751	61.25090	609.51843	-993.15112	
902	9.010	-647.61816	-12.41588	-577.68884	767.13330	-2.13468	-493.21423	-719.02960	14.19414	640.88055	851.52307	21.68604	644.40259	61.54653	609.08472	-993.42548	
903	9.020	-647.28961	-12.70051	-577.73047	767.30988	-2.24882	-493.31470	-718.78143	14.31734	640.81921	851.66003	22.18945	644.21814	62.12953	608.27258	-993.69165	
904	9.030	-647.14539	-12.96143	-577.85876	767.49384	-2.50287	-493.47083	-718.50281	14.32080	640.87024	852.06244	22.47365	644.12708	62.27375	607.61090	-994.14447	
905	9.040	-647.10016	-13.34417	-577.94946	767.68585	-2.75618	-493.50540	-718.25952	14.74748	640.67902	852.19342	22.85536	643.91089	62.14867	607.37433	-994.42944	
906	9.050	-646.92615	-13.72296	-578.04510	767.86108	-3.01169	-493.52179	-718.11505	15.14001	640.62012	852.17981	23.09317	643.70331	62.22131	606.79999	-994.93292	
907	9.060	-646.85364	-14.02429	-578.09381	767.98071	-3.27624	-493.52112	-718.07898	15.33406	640.66309	852.25610	23.16732	643.44775	62.33764	606.27582	-995.27521	
908	9.070	-646.74585	-14.37488	-578.14594	768.03680	-3.62687	-493.57993	-717.96075	15.61437	640.70081	852.32910	23.40353	643.52588	62.61461	605.62085	-995.49689	
909	9.080	-646.79108	-14.70749	-578.25684	767.90417	-4.21162	-493.76147	-717.99762	16.03579	640.58484	852.24249	23.88125	643.63623	62.84542	605.18439	-995.95239	
910	9.090	-646.65771	-15.10338	-578.40771	768.02454	-4.56930	-493.86478	-718.10242	16.41539	640.43097	852.44116	24.23473	643.54437	62.84610	604.51324	-996.35748	
911	9.100	-646.53052	-15.42157	-578.51227	768.09198	-4.95946	-493.88977	-718.05865	16.88262	640.36340	852.69312	24.74786	643.42841	62.82230	603.90613	-996.80792	
912	9.110	-646.41315	-15.74363	-578.57056	768.19000	-5.11935	-494.02032	-717.89227	17.32705	640.15387	852.74200	25.03221	643.25519	62.79528	603.36133	-997.49451	
913	9.120	-646.42822	-15.96456	-578.63385	768.21094	-5.23323	-494.02475	-717.86530	17.46324	640.03790	852.55219	25.57247	643.16809	62.80283	603.00220	-997.93750	
914	9.130	-646.50848	-16.18056	-578.65924	768.20068	-5.38109	-494.10049	-717.82251	17.66115	639.92419	852.58813	25.86591	643.18188	62.67691	602.37732	-998.50470	
915	9.140	-646.51837	-16.47126	-578.69470	768.11047	-5.52720	-494.22015	-717.83850	17.78840	639.95374	852.59137	26.00418	643.14276	63.51027	601.83771	-998.44403	
916	9.150	-646.55823	-16.84058	-578.76282	768.23138	-5.82717	-494.24728	-717.78381	18.00432	639.96350	852.56586	26.16478	643.06970	62.44883	601.31738	-999.12653	
917	9.160	-646.47241	-17.26957	-578.85352	768.22217	-6.06186	-494.36353	-717.81201	18.50614	639.82605	852.57166	26.21152	642.81494	62.52654	600.84552	-999.66589	
918	9.170	-646.50677	-17.57648	-578.91388	768.23883	-6.23826	-494.49854	-718.03680	19.02573	639.57916	852.48608	26.57772	642.59796	62.81099	600.41547	-999.83270	
919	9.180	-646.57385	-17.78980	-578.96063	768.30872	-6.61534	-494.47589	-717.92719	19.60362	639.55304	852.46643	27.23274	642.68152	63.06566	599.80048	-999.97626	
920	9.190	-646.63263	-17.99477	-578.97931	767.97906	-6.91481	-494.76898	-717.97723	19.83835	639.53766	852.45581	27.54673	642.64374	62.74695	599.30371	-1000.34882	
921	9.200	-646.73010	-18.40052	-579.03906	767.91516	-7.32452	-494.81241	-718.03125	20.00533	639.48090	852.40356	27.88742	642.32288	62.57426	598.72675	-1000.53564	
922	9.210	-647.03741	-18.90149	-579.19415	767.74072	-7.55611	-494.93701	-718.19812	20.11775	639.39600	852.11414	28.29058	642.35645	62.30342	598.24530	-1000.97168	
923	9.220	-647.37244	-19.26610	-579.27588	767.49390	-7.79483	-494.99222	-718.50336	20.42894	639.26080	851.75909	28.49914	642.34094	62.16018	597.83411	-1001.33411	
924	9.230	-647.57422	-19.49115	-579.29266	767.37408	-8.06384	-494.85919	-718.82336	20.89633	639.21405	851.32953	28.79405	642.26862	61.60043	597.22455	-1001.94141	
925	9.240	-647.69623	-19.66881	-579.30194	767.11469	-8.37241	-494.88492	-719.30652	21.31502	639.00574	851.06665	29.14763	642.20087	61.12039	596.72089	-1002.45209	
926	9.250	-647.98175	-19.92533	-579.43561	767.03094	-8.79132	-494.69818	-719.56378	21.59842	638.94775	850.94910	29.47631	642.08429	61.10247	596.13953	-1002.86432	
927	9.260	-648.32153	-20.31812	-579.54962	766.61633	-9.04111	-494.81345	-719.87122	21.79689	638.78766	850.88898	29.70062	641.99133	61.52561	595.44171	-1002.97638	
928	9.270	-648.53284	-20.60721	-579.56787	766.02991	-9.38587	-495.12122	-720.08148	22.08215	638.68732	850.45251	30.04248	641.83057	60.61569	594.93787	-1003.83459	
929	9.280	-648.73431	-20.84331	-579.56616	765.68115	-9.55017	-495.23898	-720.45245	22.33467	638.70410	850.01044	30.43338	641.76630	60.31218	594.62292	-1004.32458	
930	9.290	-649.33386	-21.14628	-579.69489	765.50568	-9.66160	-495.17789	-720.66718	22.46288	638.63690	849.75146	30.59761	641.69769	59.84743	594.16553	-1004.73926	
